<?xml version="1.0" encoding="UTF-8" standalone="no"?>
<!-- Created with Inkscape (http://www.inkscape.org/) -->

<svg
   xmlns:dc="http://purl.org/dc/elements/1.1/"
   xmlns:cc="http://creativecommons.org/ns#"
   xmlns:rdf="http://www.w3.org/1999/02/22-rdf-syntax-ns#"
   xmlns:svg="http://www.w3.org/2000/svg"
   xmlns="http://www.w3.org/2000/svg"
   xmlns:sodipodi="http://sodipodi.sourceforge.net/DTD/sodipodi-0.dtd"
   xmlns:inkscape="http://www.inkscape.org/namespaces/inkscape"
   width="999.99994"
   height="195.60321"
   id="svg4427"
   version="1.1"
   inkscape:version="0.48.2 r9819"
   sodipodi:docname="logo.svg">
  <defs
     id="defs4429" />
  <sodipodi:namedview
     id="base"
     pagecolor="#ffffff"
     bordercolor="#666666"
     borderopacity="1.0"
     inkscape:pageopacity="0.0"
     inkscape:pageshadow="2"
     inkscape:zoom="0.70710678"
     inkscape:cx="418.57343"
     inkscape:cy="-131.43167"
     inkscape:document-units="px"
     inkscape:current-layer="layer1"
     showgrid="false"
     inkscape:snap-page="true"
     showguides="true"
     inkscape:guide-bbox="true"
     inkscape:snap-nodes="true"
     inkscape:object-paths="true"
     inkscape:window-width="1366"
     inkscape:window-height="720"
     inkscape:window-x="1"
     inkscape:window-y="0"
     inkscape:window-maximized="0"
     inkscape:snap-bbox="true"
     inkscape:bbox-paths="false"
     inkscape:snap-bbox-edge-midpoints="true"
     inkscape:object-nodes="false"
     inkscape:snap-smooth-nodes="false"
     inkscape:snap-global="true"
     fit-margin-top="0"
     fit-margin-left="0"
     fit-margin-right="0"
     fit-margin-bottom="0" />
  <metadata
     id="metadata4432">
    <rdf:RDF>
      <cc:Work
         rdf:about="">
        <dc:format>image/svg+xml</dc:format>
        <dc:type
           rdf:resource="http://purl.org/dc/dcmitype/StillImage" />
        <dc:title />
      </cc:Work>
    </rdf:RDF>
  </metadata>
  <g
     inkscape:label="Layer 1"
     inkscape:groupmode="layer"
     id="layer1"
     transform="translate(-27.374999,-556.60493)">
    <path
       inkscape:connector-curvature="0"
       style="fill:#ffffff;fill-opacity:1;stroke:none"
       d="m 374.96989,582.72449 9.45356,0 0,69.14078 -9.45356,0 z"
       id="rect3813" />
    <path
       style="font-size:medium;font-style:normal;font-variant:normal;font-weight:normal;font-stretch:normal;text-indent:0;text-align:start;text-decoration:none;line-height:normal;letter-spacing:normal;word-spacing:normal;text-transform:none;direction:ltr;block-progression:tb;writing-mode:lr-tb;text-anchor:start;baseline-shift:baseline;color:#000000;fill:#ffffff;fill-opacity:1;stroke:none;stroke-width:7.75322293999999879;marker:none;visibility:visible;display:inline;overflow:visible;enable-background:accumulate;font-family:Sans;-inkscape-font-specification:Sans"
       d="m 434.42708,582.71478 c -19.0491,0 -34.57297,15.52388 -34.57297,34.57297 0,19.0491 15.52387,34.57297 34.57297,34.57297 19.04908,0 34.57296,-15.52387 34.57296,-34.57297 0,-19.04909 -15.52388,-34.57297 -34.57296,-34.57297 z m 0,7.35975 c 15.06992,0 27.21322,12.14329 27.21322,27.21322 0,15.06994 -12.1433,27.21323 -27.21322,27.21323 -15.06994,0 -27.21323,-12.14329 -27.21323,-27.21323 0,-15.06993 12.14329,-27.21322 27.21323,-27.21322 z"
       id="path4039"
       inkscape:connector-curvature="0" />
    <path
       inkscape:connector-curvature="0"
       style="fill:#ffffff;fill-opacity:1;stroke:none"
       d="m 362.96161,582.58571 c -7.98968,0.14422 -14.29709,3.5029 -18.93155,8.60223 l 0,-8.46937 -9.43256,0 0,69.14997 9.43256,0 0,-46.00034 c 3.16924,-8.3389 9.62667,-13.4515 19.52939,-14.44776 l 2.78991,-8.70187 c -1.1502,-0.1031 -2.29947,-0.1525 -3.38775,-0.13286 z"
       id="rect3811" />
    <path
       sodipodi:type="arc"
       style="fill:#ffffff;fill-opacity:1;stroke:none"
       id="path4145"
       sodipodi:cx="381.75"
       sodipodi:cy="158.5"
       sodipodi:rx="6"
       sodipodi:ry="6"
       d="m 387.75,158.5 a 6,6 0 1 1 -12,0 6,6 0 1 1 12,0 z"
       transform="matrix(1.0628238,0,0,1.0628238,-25.965471,395.26302)" />
    <path
       inkscape:connector-curvature="0"
       style="fill:#ffffff;fill-opacity:1;stroke:none"
       d="m 771.4259,556.60493 -0.008,26.11364 -11.69107,0 0,8.00439 11.69107,0 0,16.90554 c 2.83737,0.23121 5.67533,0.52279 8.50259,0.83033 l 0,-17.73587 13.81671,0 0,-8.00439 -13.81671,0 0.0156,-26.11364 z m -20.5336,25.98078 c -7.98968,0.14422 -14.29709,3.5029 -18.93155,8.60223 l 0,-8.46937 -9.43256,0 0,24.11281 c 3.14367,-0.18362 6.28498,-0.34693 9.43256,-0.46498 l 0,-0.4982 c 3.16924,-8.3389 9.62667,-13.4515 19.52939,-14.44776 l 2.78991,-8.70187 c -1.15021,-0.1031 -2.29947,-0.1525 -3.38775,-0.13286 z m -80.44248,0.13286 c -19.04909,0 -34.57498,15.5259 -34.57498,34.57498 0,0.80832 0.0115,1.59664 0.0664,2.39136 2.4347,-0.57318 4.86438,-1.1201 7.30692,-1.66066 -0.006,-0.2452 -0.0332,-0.48389 -0.0332,-0.7307 0,-15.06992 12.16492,-27.20164 27.23486,-27.20164 12.21028,0 22.47729,7.958 25.93954,18.99797 2.86525,-0.32791 5.73155,-0.65356 8.60223,-0.92997 l 0,-25.44134 -7.43977,0 0,13.15244 c -6.34026,-8.00494 -16.13211,-13.15244 -27.102,-13.15244 z m 61.51093,36.63421 c -3.14279,0.0752 -6.29152,0.17841 -9.43256,0.33213 l 0,32.18363 9.43256,0 z m 39.45734,1.29531 0,31.22045 8.50259,0 0,-30.32369 c -2.83014,-0.34086 -5.66887,-0.6343 -8.50259,-0.89676 z m -66.42649,0.29892 c -2.57123,0.23853 -5.13767,0.47897 -7.70547,0.76391 -2.10107,12.95319 -13.27292,22.78428 -26.83631,22.78428 -10.41409,0 -19.42955,-5.79506 -24.01317,-14.34812 -2.47044,0.53274 -4.91098,1.0974 -7.37334,1.66066 5.49798,11.83687 17.51083,20.0608 31.38651,20.0608 10.9699,0 20.76175,-5.1475 27.10201,-13.15244 l 0,13.15244 7.43977,0 z"
       id="path4049"
       sodipodi:nodetypes="cccccccccccccsccccccccsssccsscccccsccccccccccccsccscccc" />
    <path
       style="font-size:medium;font-style:normal;font-variant:normal;font-weight:normal;font-stretch:normal;text-indent:0;text-align:start;text-decoration:none;line-height:normal;letter-spacing:normal;word-spacing:normal;text-transform:none;direction:ltr;block-progression:tb;writing-mode:lr-tb;text-anchor:start;baseline-shift:baseline;color:#000000;fill:#ffffff;fill-opacity:1;stroke:none;stroke-width:7.75322293999999879;marker:none;visibility:visible;display:inline;overflow:visible;enable-background:accumulate;font-family:Sans;-inkscape-font-specification:Sans"
       d="m 310.16935,591.40074 c -2.55779,-2.2636 -5.48622,-4.16906 -8.70625,-5.61991 -17.36755,-7.82536 -37.88359,-0.0305 -45.70895,17.33709 -7.82535,17.36754 -0.0535,37.86482 17.31411,45.69017 17.36755,7.82534 37.8878,0.0722 45.71315,-17.29535 l -6.7169,-3.03612 c -6.19072,13.73963 -22.23923,19.82827 -35.97889,13.63755 -13.73963,-6.19073 -19.80949,-22.26224 -13.61877,-36.00187 6.19073,-13.73966 22.26223,-19.80951 36.00187,-13.61878 10.15505,4.5756 16.46366,14.84997 15.98477,25.97795 l 7.3709,0.31296 c 0.45556,-10.58559 -3.98167,-20.5929 -11.65504,-27.38369 z"
       id="path3795"
       inkscape:connector-curvature="0" />
    <path
       inkscape:connector-curvature="0"
       style="fill:#ffffff;fill-opacity:1;stroke:none"
       d="m 259.64091,610.93499 54.8883,0 0,7.70547 -54.8883,0 z"
       id="rect3819" />
    <path
       inkscape:connector-curvature="0"
       style="fill:#ffffff;fill-opacity:1;stroke:none"
       d="m 202.79242,557.34366 8.50259,0 0,94.52161 -8.50259,0 z"
       id="rect3803" />
    <path
       inkscape:connector-curvature="0"
       style="fill:#ffffff;fill-opacity:1;stroke:none"
       d="m 228.30019,557.34366 8.50259,0 0,94.5216 -8.50259,0 z"
       id="rect3809" />
    <g
       id="g4007"
       style="fill:#ffffff;fill-opacity:1"
       transform="matrix(1.0628238,0,0,1.0628238,-1.7198026,-47.256605)">
      <path
         inkscape:connector-curvature="0"
         id="path3023"
         d="m 141.77037,592.7392 c -17.9231,0 -32.52935,14.60626 -32.52935,32.52935 0,17.9231 14.60625,32.52935 32.52935,32.52935 17.92309,0 32.52934,-14.60625 32.52934,-32.52935 0,-17.92309 -14.60625,-32.52935 -32.52934,-32.52935 z m 0,6.92471 c 14.17914,0 25.60464,11.4255 25.60464,25.60464 0,14.17915 -11.4255,25.60465 -25.60464,25.60465 -14.17915,0 -25.60465,-11.4255 -25.60465,-25.60465 0,-14.17914 11.4255,-25.60464 25.60465,-25.60464 z"
         style="font-size:medium;font-style:normal;font-variant:normal;font-weight:normal;font-stretch:normal;text-indent:0;text-align:start;text-decoration:none;line-height:normal;letter-spacing:normal;word-spacing:normal;text-transform:none;direction:ltr;block-progression:tb;writing-mode:lr-tb;text-anchor:start;baseline-shift:baseline;color:#000000;fill:#ffffff;fill-opacity:1;stroke:none;stroke-width:7.75322293999999879;marker:none;visibility:visible;display:inline;overflow:visible;enable-background:accumulate;font-family:Sans;-inkscape-font-specification:Sans" />
      <path
         inkscape:connector-curvature="0"
         id="rect3801"
         d="m 167.29971,592.74274 7,0 0,65.05385 -7,0 z"
         style="fill:#ffffff;fill-opacity:1;stroke:none" />
    </g>
    <path
       inkscape:connector-curvature="0"
       style="fill:#e94153;fill-opacity:1"
       d="m 1017.8157,749.69942 c -1.5027,-3.2982 -0.8138,-5.03161 2.7601,-6.94428 5.3872,-2.88315 9.2916,2.95851 4.9076,7.34256 -2.9584,2.95834 -6.2153,2.78916 -7.6677,-0.39828 z"
       id="path5398" />
    <path
       inkscape:connector-curvature="0"
       style="fill:#e94153;fill-opacity:1"
       d="m 946.76908,746.86672 c -16.62813,-1.0528 -27.93935,-7.9709 -33.44657,-20.45635 -3.60312,-8.16869 -4.09573,-11.82567 -2.64633,-19.6453 2.2856,-12.33094 6.58031,-19.6236 18.56895,-31.53109 14.91839,-14.81744 26.50436,-21.24335 44.43551,-24.64525 9.86754,-1.87206 22.47444,-1.36842 28.37466,1.13355 3.5444,1.50297 3.8212,1.4545 6.5598,-1.14862 4.1586,-3.95282 6.1747,-2.69061 6.1747,3.86584 0,2.92128 0.6621,6.88202 1.4714,8.80165 4.9034,11.63227 4.1183,19.14356 -2.0645,19.74987 -4.2744,0.41918 -6.1637,-1.93432 -7.8489,-9.77742 -1.6586,-7.71864 -4.2646,-10.48241 -12.00654,-12.73303 -11.47786,-3.33673 -29.16774,-1.33724 -41.8908,4.73492 -13.60441,6.49279 -26.234,18.16147 -30.97456,28.6179 -7.47234,16.48205 1.01944,35.73019 18.8319,42.68589 15.01107,5.86176 44.35741,2.79094 67.3079,-7.04315 1.4084,-0.60347 1.86,-0.29324 1.86,1.27766 0,4.24394 -5.6979,7.16534 -22.09848,11.33021 -9.7056,2.46469 -20.06469,4.40239 -27.32284,5.11079 -1.75366,0.17117 -7.73205,0.0235 -13.2853,-0.32807 z"
       id="path5396" />
    <path
       inkscape:connector-curvature="0"
       style="fill:#e94153;fill-opacity:1"
       d="m 863.33741,738.07149 c -1.75366,-0.85037 -5.72457,-2.35061 -8.82423,-3.33387 -3.09967,-0.98326 -6.20392,-2.69749 -6.89831,-3.80939 -1.28625,-2.0596 -3.9397,-2.78772 -3.9397,-1.08106 0,1.49625 -5.1799,4.48484 -8.30462,4.79142 -7.05065,0.69178 -8.67504,-4.32896 -3.35933,-10.38321 3.68765,-4.20001 8.67527,-6.41494 10.44966,-4.64055 1.72209,1.72208 2.08486,-0.34559 2.54575,-14.51015 0.38089,-11.70575 0.59492,-12.79087 2.88931,-14.64876 1.36288,-1.10358 3.00339,-1.83195 3.64559,-1.61856 0.75685,0.25146 1.25816,5.59212 1.42493,15.18017 0.26326,15.13606 1.27488,19.96094 4.55297,21.71532 1.51878,0.81283 2.11045,0.36493 3.21256,-2.43198 2.00359,-5.08462 6.02969,-10.1292 9.52799,-11.93823 2.90397,-1.5017 3.16644,-1.46177 4.2988,0.65409 1.80382,3.37048 0.26914,11.01944 -2.98747,14.8897 -2.69988,3.20862 -2.7275,3.37491 -0.79532,4.78777 1.10093,0.80502 3.71415,1.46367 5.80715,1.46367 3.44431,0 14.76464,-2.7675 19.4361,-4.75157 1.32103,-0.56108 1.85994,-0.30218 1.85994,0.89348 0,5.56296 -27.01262,12.42268 -34.54177,8.77171 z"
       id="path5394" />
    <path
       inkscape:connector-curvature="0"
       style="fill:#e94153;fill-opacity:1"
       d="m 839.68958,727.13987 c -0.73069,-0.29484 -1.92637,-0.29484 -2.65706,0 -0.73069,0.29484 -0.13285,0.53608 1.32853,0.53608 1.46138,0 2.05922,-0.24124 1.32853,-0.53608 z"
       id="path5392" />
    <path
       inkscape:connector-curvature="0"
       style="fill:#e94153;fill-opacity:1"
       d="m 748.69328,733.86242 c -0.81506,-1.95072 -1.81026,-4.58121 -2.21154,-5.84553 -0.40128,-1.26434 -1.05607,-2.32808 -1.4551,-2.36389 -0.39902,-0.0358 -5.5082,-0.20627 -11.35373,-0.37881 -12.00422,-0.35433 -20.72507,-2.2397 -20.72507,-4.48058 0,-0.81603 1.55438,-2.43141 3.45418,-3.58974 4.23438,-2.58175 11.34409,-2.74406 20.15781,-0.4602 3.51022,0.90959 6.52966,1.50637 6.70987,1.32617 0.61405,-0.61407 -4.75825,-49.18185 -6.38417,-57.7154 -2.21,-11.59894 -2.11481,-12.71792 1.21079,-14.23315 4.02045,-1.83184 5.50139,0.0616 7.8902,10.08818 1.87391,7.86535 2.74068,15.74823 5.24343,47.68643 0.59401,7.58032 1.53813,14.2405 2.09803,14.80041 1.34811,1.3481 14.91606,-1.59562 29.28882,-6.35455 27.03944,-8.95297 52.20376,-22.71051 61.5828,-33.6678 15.84863,-18.51555 10.57057,-35.68174 -14.87255,-48.37102 -26.21111,-11.71499 -55.76668,-15.13899 -82.90179,-15.37945 -50.53867,-0.3554 -98.78871,9.40458 -133.84755,19.00258 -2.88608,0.7893 -6.11441,1.71026 -7.17406,2.04659 -1.43043,0.454 -1.92666,0.0532 -1.92666,-1.55609 0,-1.70897 1.18057,-2.49637 5.57983,-3.72162 46.31338,-12.23594 100.50628,-22.63913 148.89906,-19.8046 47.50053,3.34569 72.05226,9.85719 91.07016,24.1532 12.06676,9.07074 14.72204,20.48559 7.78608,33.47183 -3.70873,6.94387 -13.53608,17.01967 -22.52426,23.09368 -19.6767,11.79559 -43.31084,22.78959 -65.98237,27.82675 -4.2185,0.89383 -5.31164,1.46729 -4.09494,2.14819 1.52346,0.85258 12.16902,3.43125 20.88035,5.05784 1.975,0.36878 4.24046,1.64923 5.03435,2.84544 1.23221,1.85666 1.20004,2.52245 -0.21982,4.54958 -1.4043,2.00492 -2.27085,2.26268 -5.56577,1.65557 -2.14638,-0.39547 -5.81559,-1.39997 -8.1538,-2.23219 -2.33821,-0.83223 -6.64265,-1.94203 -9.56541,-2.46622 -2.92277,-0.5242 -6.38939,-1.26388 -7.7036,-1.64373 -2.18684,-0.63208 -2.33497,-0.4181 -1.74669,2.52329 0.50879,2.54396 0.19064,3.45592 -1.52624,4.37476 -3.62239,1.93865 -5.39846,1.32898 -6.95064,-2.38592 z"
       id="path5390" />
    <path
       inkscape:connector-curvature="0"
       style="fill:#e94153;fill-opacity:1"
       d="m 801.19961,733.22774 c -1.7349,-3.24169 -1.30078,-4.75172 1.77703,-6.1811 4.14231,-1.92376 5.52059,-1.65845 6.87958,1.32421 0.9987,2.1919 0.8738,3.02277 -0.71891,4.78271 -2.44831,2.70535 -6.50922,2.74331 -7.9377,0.0742 z"
       id="path5388" />
    <path
       inkscape:connector-curvature="0"
       style="fill:#ffffff;fill-opacity:1"
       d="m 612.56617,585.15966 c 0,0 -1.19232,-17.97639 -1.68972,-28.55473 l 4.53715,0.3278 4.53716,0.32781 c -1.05532,9.29241 -2.30988,28.62981 -2.30988,28.62981 z"
       id="path5350" />
    <path
       style="font-size:medium;font-style:normal;font-variant:normal;font-weight:normal;font-stretch:normal;text-indent:0;text-align:start;text-decoration:none;line-height:normal;letter-spacing:normal;word-spacing:normal;text-transform:none;direction:ltr;block-progression:tb;writing-mode:lr-tb;text-anchor:start;baseline-shift:baseline;color:#000000;fill:#ffffff;fill-opacity:1;stroke:none;stroke-width:7.75322293999999879;marker:none;visibility:visible;display:inline;overflow:visible;enable-background:accumulate;font-family:Sans;-inkscape-font-specification:Sans"
       d="m 558.29743,582.72072 c -19.0491,0 -34.57297,15.52388 -34.57297,34.57297 0,19.0491 15.52387,34.57297 34.57297,34.57297 19.04908,0 34.57296,-15.52387 34.57296,-34.57297 0,-19.04909 -15.52388,-34.57297 -34.57296,-34.57297 z m 0,7.35975 c 15.06992,0 27.21322,12.14329 27.21322,27.21322 0,15.06994 -12.1433,27.21323 -27.21322,27.21323 -15.06994,0 -27.21324,-12.14329 -27.21324,-27.21323 0,-15.06993 12.1433,-27.21322 27.21324,-27.21322 z"
       id="path3799"
       inkscape:connector-curvature="0" />
    <path
       inkscape:connector-curvature="0"
       style="fill:#ffffff;fill-opacity:1;stroke:none"
       d="m 461.53255,582.72435 7.43976,0 0,69.14095 -7.43976,0 z"
       id="rect3815" />
    <rect
       y="557.34369"
       x="585.42395"
       height="94.521606"
       width="7.4397664"
       id="rect3817"
       style="fill:#ffffff;fill-opacity:1;stroke:none" />
    <path
       inkscape:connector-curvature="0"
       style="font-size:medium;font-style:normal;font-variant:normal;font-weight:normal;font-stretch:normal;text-indent:0;text-align:start;text-decoration:none;line-height:normal;letter-spacing:normal;word-spacing:normal;text-transform:none;direction:ltr;block-progression:tb;writing-mode:lr-tb;text-anchor:start;baseline-shift:baseline;color:#000000;fill:#ffffff;fill-opacity:1;stroke:none;stroke-width:7.75322293999999879;marker:none;visibility:visible;display:inline;overflow:visible;enable-background:accumulate;font-family:Sans;-inkscape-font-specification:Sans"
       d="m 61.949986,582.18716 c -19.049093,0 -34.574987,15.5259 -34.574987,34.57498 0,19.0491 15.525894,34.57499 34.574987,34.57499 11.021151,0 20.864302,-5.21619 27.201646,-13.2853 l 0,7.43977 c 0,15.06994 -12.131712,27.23486 -27.201646,27.23486 -10.649495,0 -20.308728,-6.19394 -24.743867,-15.87593 l -6.675862,3.05562 c 5.626809,12.28345 17.908844,20.16044 31.419729,20.16044 19.049093,0 34.574986,-15.52589 34.574986,-34.57499 l 0,-28.72946 0.03321,-34.04357 -7.406554,0 0,12.75388 C 82.814565,587.39769 72.975643,582.18716 61.949986,582.18716 z m 0,7.34012 c 15.069934,0 27.201646,12.16494 27.201646,27.23486 0,15.06994 -12.131712,27.20165 -27.201646,27.20165 -15.069934,0 -27.201647,-12.13171 -27.201647,-27.20165 0,-15.06992 12.131713,-27.23486 27.201647,-27.23486 z"
       id="path3793" />
  </g>
</svg>
