<?xml version="1.0" encoding="UTF-8" standalone="no"?>
<!-- Created with Inkscape (http://www.inkscape.org/) -->

<svg
   xmlns:dc="http://purl.org/dc/elements/1.1/"
   xmlns:cc="http://creativecommons.org/ns#"
   xmlns:rdf="http://www.w3.org/1999/02/22-rdf-syntax-ns#"
   xmlns:svg="http://www.w3.org/2000/svg"
   xmlns="http://www.w3.org/2000/svg"
   xmlns:sodipodi="http://sodipodi.sourceforge.net/DTD/sodipodi-0.dtd"
   xmlns:inkscape="http://www.inkscape.org/namespaces/inkscape"
   width="180"
   height="180"
   id="svg3823"
   version="1.1"
   inkscape:version="0.48.2 r9819"
   sodipodi:docname="favicon.svg">
  <defs
     id="defs3825" />
  <sodipodi:namedview
     id="base"
     pagecolor="#ffffff"
     bordercolor="#666666"
     borderopacity="1.0"
     inkscape:pageopacity="1"
     inkscape:pageshadow="2"
     inkscape:zoom="2.8"
     inkscape:cx="114.49892"
     inkscape:cy="51.244168"
     inkscape:document-units="px"
     inkscape:current-layer="layer1"
     showgrid="false"
     inkscape:snap-page="false"
     inkscape:window-width="1366"
     inkscape:window-height="720"
     inkscape:window-x="1"
     inkscape:window-y="0"
     inkscape:window-maximized="0" />
  <metadata
     id="metadata3828">
    <rdf:RDF>
      <cc:Work
         rdf:about="">
        <dc:format>image/svg+xml</dc:format>
        <dc:type
           rdf:resource="http://purl.org/dc/dcmitype/StillImage" />
        <dc:title></dc:title>
      </cc:Work>
    </rdf:RDF>
  </metadata>
  <g
     inkscape:label="Layer 1"
     inkscape:groupmode="layer"
     id="layer1"
     transform="translate(0,-872.36218)">
    <path
       style="fill:#a23c31;stroke:none;stroke-width:1px;stroke-linecap:butt;stroke-linejoin:miter;stroke-opacity:1;fill-opacity:1"
       d="M 2.5,2.8571429 C 2.5,19.047619 0.129381,35.764587 7.1428572,50.357142 16.11361,69.022096 24.398279,80.256453 43.928571,87.142857 c 24.924547,8.788424 58.114729,9.24394 83.571439,2.142857 21.81742,-6.085914 29.24223,-15.683978 41.07142,-35 C 178.0217,38.854253 180,18.095238 180,0 c -7.61905,0 -15.23809,0 -22.85714,0 -0.2381,10 1.10349,27.957542 -2.85715,37.142857 -7.66178,17.7688 -10.39367,30.67381 -28.21428,38.214286 -20.71764,8.7663 -43.814726,7.616554 -58.214287,0.714286 C 50.365708,67.687104 46.99557,56.043721 38.571428,38.571428 33.297796,27.633523 35.357143,13.928571 35.357143,1.7857143 22.976191,1.7857143 14.880952,2.8571429 2.5,2.8571429 z"
       id="path3896"
       inkscape:connector-curvature="0"
       transform="translate(0,872.36218)"
       sodipodi:nodetypes="cssssccsssscc" />
    <path
       style="fill:#263257;fill-opacity:1;stroke:none"
       d="m 5.7142857,180 0,-83.928572 c 0,0 70.3598813,-8.559816 103.9285743,0 17.34493,4.422852 34.65796,12.887142 47.14285,25.714282 8.57822,8.81338 12.76091,21.23552 16.78572,32.85715 2.62066,7.56716 4.64286,23.57143 4.64286,23.57143 l -48.21429,0 c 0,0 2.64981,-20.82505 0,-30.71429 -2.4698,-9.21742 -7.25455,-18.37154 -14.31387,-24.79235 -8.80489,-8.0085 -20.740517,-12.84103 -32.471844,-14.85051 -10.485245,-1.79603 -22.125191,-1.59711 -31.785714,2.85715 -6.956899,3.20767 -12.272981,9.63569 -16.428572,16.07142 -3.575161,5.53683 -5.637188,12.08151 -6.785714,18.57143 -2.053812,11.60539 0,35.35715 0,35.35715 z"
       id="path4406"
       inkscape:connector-curvature="0"
       transform="translate(0,872.36218)"
       sodipodi:nodetypes="ccaaaccaaaaaacc" />
  </g>
</svg>
